<svg xmlns="http://www.w3.org/2000/svg" width="916.942" height="829.948" viewBox="38.16 128.217 916.942 829.948"><defs><clipPath id="b"><path fill="currentColor" d="M905 617q-83 117-172.5 219.5T494.5 956q-148.5 17-237-99.5T86 620Q3 500 64 363.5T249 168q124-59 242-30.5T744 195q135 29 189.5 167T905 617Z"/></clipPath><filter id="a" x="-50vw" y="-50vh" width="100vw" height="100vh"><feFlood flood-color="#fff" result="neutral-gray"/><feTurbulence type="fractalNoise" baseFrequency="2.5" numOctaves="100" stitchTiles="stitch" result="noise"/><feColorMatrix in="noise" type="saturate" values="0" result="destaturatedNoise"/><feComponentTransfer in="desaturatedNoise" result="theNoise"><feFuncA type="table" tableValues="0 0 0.05 0"/></feComponentTransfer><feBlend in="SourceGraphic" in2="theNoise" mode="soft-light" result="noisy-image"/></filter></defs><g filter="url(#a)" clip-path="url(#b)"><path fill="#f3f3f3" d="M905 617q-83 117-172.5 219.5T494.5 956q-148.5 17-237-99.5T86 620Q3 500 64 363.5T249 168q124-59 242-30.5T744 195q135 29 189.5 167T905 617Z"/></g></svg>